<svg width="18" height="18" viewBox="0 0 18 18" fill="none" xmlns="http://www.w3.org/2000/svg">
<path fill-rule="evenodd" clip-rule="evenodd" d="M1 6H0V12H1V14H2V15H3V16H4V17H6V18H12V17H14V16H15V15H16V14H17V12H18V6H17V4H16V3H15V2H14V1H12V0H6V1H4V2H3V3H2V4H1V6ZM7 3V2H11V3H13V4H14V5H15V7H16V11H15V13H14V12H13V11H12V10H11V9H10V8H9V7H8V6H7V5H6V4H5V3H7ZM12 13H11V12H10V11H9V10H8V9H7V8H6V7H5V6H4V5H3V7H2V11H3V13H4V14H5V15H7V16H11V15H13V14H12V13Z" fill="black"/>
<path opacity="0.1" d="M7 3V2H11V3H13V4H14V5H15V7H16V11H15V13H14V14H13V15H11V16H7V15H5V14H4V13H3V11H2V7H3V5H4V4H5V3H7Z" fill="white"/>
</svg>
